<?xml version="1.0" standalone="no"?>
<!DOCTYPE svg PUBLIC "-//W3C//DTD SVG 20010904//EN"
 "http://www.w3.org/TR/2001/REC-SVG-20010904/DTD/svg10.dtd">
<svg version="1.0" xmlns="http://www.w3.org/2000/svg"
 width="600.000000pt" height="600.000000pt" viewBox="0 0 600.000000 600.000000"
 preserveAspectRatio="xMidYMid meet">
<metadata>
Created by potrace 1.14, written by Peter Selinger 2001-2017
</metadata>
<g transform="translate(0.000000,600.000000) scale(0.100000,-0.100000)"
fill="#000000" stroke="none">
<path d="M3620 5677 c0 -4 -4 -5 -10 -2 -17 10 -32 -5 -20 -20 8 -10 8 -15 -1
-21 -8 -5 -9 -3 -4 6 5 9 4 11 -4 6 -8 -5 -9 -12 -2 -20 6 -6 12 -28 14 -47 2
-19 6 -39 10 -45 14 -24 22 -82 14 -104 -4 -8 5 -28 19 -45 15 -16 23 -23 18
-15 -4 8 -3 11 1 7 5 -4 10 -13 11 -20 1 -7 3 -16 4 -22 6 -28 -2 -45 -21 -45
-11 0 -18 -4 -15 -9 3 -5 -4 -12 -17 -16 -12 -4 -29 -9 -37 -12 -26 -8 -62 -4
-78 10 -13 10 -14 9 -7 -3 7 -12 3 -11 -18 3 -19 12 -27 14 -27 5 -1 -8 -5 -7
-14 4 -7 10 -16 15 -19 11 -4 -3 -7 0 -7 7 0 7 -3 11 -6 7 -8 -8 -33 16 -27
25 2 4 -2 5 -10 2 -8 -3 -21 2 -30 10 -8 8 -17 12 -21 9 -3 -4 -6 -2 -6 4 0 6
-11 9 -25 8 -15 -2 -29 3 -35 13 -7 12 -9 13 -10 3 0 -11 -3 -11 -15 -1 -12
10 -15 10 -15 -1 0 -11 -2 -11 -10 1 -8 13 -10 13 -10 0 0 -11 -3 -11 -12 -2
-15 15 -31 16 -22 0 4 -7 3 -8 -4 -4 -20 12 -52 15 -52 5 0 -6 -5 -7 -10 -4
-10 6 -70 -52 -70 -68 0 -4 -4 -6 -9 -2 -5 3 -12 1 -16 -4 -8 -14 -45 -9 -45
7 0 7 -5 10 -12 6 -6 -4 -8 -3 -4 4 7 12 -39 67 -57 68 -7 0 -17 -4 -24 -8 -6
-5 -14 -5 -18 1 -4 7 -17 3 -35 -11 -16 -12 -27 -25 -24 -30 3 -4 0 -8 -5 -8
-6 0 -10 -3 -8 -7 1 -5 -2 -9 -7 -10 -5 -1 -12 -6 -16 -12 -8 -14 -50 19 -50
39 0 7 -3 11 -6 7 -3 -3 -15 2 -25 12 -22 21 -50 21 -75 0 -16 -12 -17 -12 -9
1 6 12 5 13 -6 3 -7 -7 -19 -13 -27 -13 -17 0 -43 -26 -34 -34 3 -4 -1 -4 -11
0 -12 4 -17 1 -17 -11 0 -9 -4 -13 -10 -10 -5 3 -10 1 -10 -5 0 -6 -5 -8 -12
-4 -7 4 -8 3 -4 -5 4 -6 0 -14 -11 -18 -10 -4 -20 -9 -23 -12 -15 -17 -73 -29
-97 -20 -13 5 -29 7 -34 3 -5 -3 -9 2 -9 10 0 9 -8 16 -17 16 -15 0 -16 2 -3
10 11 7 11 10 2 10 -7 0 -11 3 -9 8 8 11 -16 27 -38 26 -32 -3 -77 -23 -95
-44 -9 -11 -21 -16 -25 -12 -5 4 -5 1 -1 -6 4 -7 12 -10 17 -7 8 6 14 -16 10
-38 -1 -5 3 -6 8 -3 5 3 11 0 14 -8 7 -18 -37 -37 -78 -34 -36 2 -61 25 -59
55 1 12 -4 21 -10 20 -6 -1 -10 4 -8 11 4 21 -49 14 -55 -7 -3 -12 -17 -23
-34 -26 -16 -4 -27 -10 -25 -13 4 -7 -13 -27 -26 -30 -5 -1 -9 -5 -10 -9 -3
-14 -46 -43 -62 -43 -9 0 -16 -4 -16 -10 0 -5 -9 -10 -20 -10 -11 0 -20 5 -20
11 0 5 -5 7 -10 4 -6 -3 -12 0 -15 7 -7 17 -45 21 -62 6 -7 -6 -13 -7 -13 -3
0 5 -9 -2 -20 -15 -11 -13 -20 -20 -20 -16 0 9 -35 -25 -36 -36 -1 -4 -3 -11
-4 -15 -1 -5 -2 -12 -1 -17 1 -5 -5 -6 -14 -2 -13 5 -14 2 -3 -17 7 -12 11
-25 10 -29 -1 -4 6 -6 16 -4 9 1 28 -9 42 -22 14 -14 20 -22 13 -18 -6 3 -15
1 -19 -5 -4 -8 -9 -7 -15 2 -6 10 -9 11 -9 2 0 -7 -5 -13 -10 -13 -6 0 -9 3
-9 8 5 32 -40 39 -88 14 -11 -6 -23 -8 -27 -5 -3 3 -6 1 -6 -6 0 -8 -7 -11
-15 -7 -8 3 -14 2 -12 -2 1 -4 -8 -17 -20 -29 -13 -13 -23 -20 -23 -15 0 4 -5
-1 -11 -11 -6 -9 -14 -15 -19 -12 -5 3 -11 1 -15 -5 -4 -6 -10 -8 -15 -5 -4 3
-11 -2 -14 -11 -3 -8 -9 -13 -13 -11 -10 6 -143 -130 -136 -137 3 -3 -4 -4
-15 -1 -12 2 -23 -3 -26 -11 -3 -9 -11 -12 -18 -8 -7 4 -10 4 -6 -1 9 -9 -40
-58 -51 -51 -4 3 -14 -4 -21 -15 -8 -10 -18 -19 -23 -19 -12 0 -77 -68 -77
-81 0 -5 -4 -8 -9 -4 -5 3 -13 -4 -16 -16 -4 -11 -12 -18 -19 -16 -7 3 -13 -1
-13 -9 0 -7 5 -10 10 -7 6 4 7 1 3 -6 -5 -7 -14 -10 -21 -7 -7 2 -12 -3 -11
-12 0 -9 -4 -16 -11 -15 -7 2 -10 -4 -7 -12 4 -8 -1 -17 -10 -21 -9 -3 -13
-10 -10 -15 3 -5 -2 -12 -10 -15 -9 -3 -16 -13 -16 -21 0 -8 -4 -11 -10 -8 -5
3 -10 1 -10 -5 0 -6 -5 -8 -12 -4 -7 5 -8 3 -3 -6 4 -7 2 -16 -6 -21 -8 -4
-14 -14 -14 -21 -1 -7 -5 -12 -11 -11 -5 1 -11 -7 -11 -18 -2 -25 -22 -51 -34
-43 -5 3 -9 -2 -9 -11 0 -9 -4 -14 -8 -11 -4 2 -9 -4 -10 -15 -1 -10 -3 -28
-4 -39 -1 -11 -6 -20 -11 -20 -4 0 -5 -5 -1 -11 7 -11 -7 -45 -39 -91 -10 -16
-15 -32 -12 -38 3 -5 1 -10 -4 -10 -6 0 -11 -5 -11 -11 0 -5 4 -7 10 -4 6 4 7
-2 1 -17 -4 -13 -6 -29 -3 -37 3 -8 0 -11 -7 -7 -7 4 -9 2 -5 -7 3 -8 1 -18
-5 -22 -6 -3 -11 -17 -11 -31 0 -14 -4 -23 -9 -19 -5 3 -15 -11 -22 -30 -7
-19 -16 -35 -19 -35 -4 0 -6 -8 -5 -17 2 -17 5 -26 22 -70 3 -10 5 -21 5 -25
-1 -5 5 -8 14 -8 11 0 14 -6 9 -20 -4 -13 -2 -20 7 -20 7 0 1 -8 -14 -18 -16
-9 -28 -20 -28 -25 0 -4 -5 -5 -10 -2 -6 3 -10 1 -10 -5 0 -6 -4 -9 -9 -6 -5
3 -11 -4 -15 -17 -8 -32 -7 -39 4 -32 14 9 13 -8 -2 -23 -9 -9 -9 -12 0 -12 7
0 12 -16 12 -41 0 -27 4 -38 11 -33 8 5 8 1 0 -14 -14 -27 -14 -35 2 -26 7 5
6 0 -3 -11 -8 -10 -14 -19 -13 -19 8 -4 -12 -46 -24 -50 -8 -3 -12 -10 -9 -15
3 -5 -2 -12 -11 -15 -15 -6 -15 -8 -3 -16 9 -6 10 -10 3 -10 -12 0 -11 -16 2
-55 5 -14 4 -16 -3 -7 -7 10 -9 6 -9 -15 0 -30 -8 -67 -18 -82 -3 -5 -1 -13 5
-16 8 -5 7 -11 -1 -21 -9 -11 -8 -14 2 -14 10 0 11 -2 2 -8 -8 -5 -9 -13 -3
-22 5 -8 5 -21 -1 -32 -7 -13 -6 -18 3 -18 8 0 9 -3 3 -8 -13 -9 -15 -42 -3
-42 6 0 5 -6 -2 -15 -10 -12 -10 -15 1 -15 9 0 10 -3 4 -8 -12 -9 -13 -32 -1
-51 6 -9 5 -12 0 -8 -6 3 -10 -18 -10 -54 0 -32 4 -59 9 -59 4 0 5 -5 1 -12
-10 -15 -11 -67 -2 -61 5 2 8 -1 8 -6 0 -6 -6 -11 -12 -11 -9 0 -9 -3 -2 -8
16 -11 25 -42 12 -42 -7 0 -7 -4 1 -14 6 -7 9 -21 5 -30 -4 -9 -1 -16 6 -16
10 0 10 -3 1 -14 -9 -11 -9 -15 1 -19 10 -4 10 -6 1 -6 -7 -1 -13 -8 -13 -17
0 -8 -3 -13 -8 -11 -4 3 -7 -6 -7 -19 0 -13 3 -24 8 -24 4 0 7 -6 7 -13 0 -7
9 -19 20 -27 11 -8 20 -20 20 -28 0 -7 5 -10 10 -7 9 5 15 -15 11 -37 0 -5 3
-8 7 -8 4 0 8 -8 9 -17 1 -10 2 -35 4 -55 1 -21 7 -38 13 -38 6 0 6 -4 -1 -11
-9 -9 -7 -18 5 -37 10 -15 11 -23 5 -19 -7 5 -13 4 -13 -2 0 -6 5 -11 10 -11
6 0 10 -7 10 -16 0 -8 4 -13 9 -10 5 4 7 -3 4 -14 -3 -12 0 -20 8 -20 7 0 9
-3 6 -7 -4 -3 -1 -13 6 -21 9 -13 9 -14 0 -8 -18 10 -16 1 3 -18 8 -9 16 -25
17 -35 0 -11 5 -17 9 -15 4 3 8 -4 8 -16 0 -12 5 -18 10 -15 10 6 14 -7 11
-34 -2 -7 2 -10 8 -6 9 5 17 -29 12 -57 0 -5 3 -8 7 -8 4 0 9 -10 9 -22 1 -13
7 -24 13 -26 5 -2 10 -10 10 -17 0 -8 9 -17 21 -20 11 -4 18 -9 15 -12 -3 -4
-1 -12 5 -20 6 -7 8 -13 5 -13 -4 0 0 -7 9 -16 9 -10 14 -25 12 -36 -3 -10 -2
-16 3 -13 4 3 10 -6 12 -20 3 -14 1 -25 -5 -25 -5 0 -3 -8 4 -17 12 -14 12
-16 0 -8 -11 6 -13 4 -8 -8 3 -10 2 -17 -4 -17 -5 0 -4 -6 3 -14 9 -10 15 -11
20 -2 5 8 8 7 8 -3 0 -9 10 -12 34 -9 19 2 33 1 30 -3 -2 -4 5 -10 16 -14 11
-3 20 -14 20 -24 0 -10 7 -24 15 -31 9 -7 14 -18 12 -24 -4 -12 30 -46 45 -46
5 0 6 -4 3 -10 -3 -5 1 -10 9 -10 9 0 16 -5 16 -11 0 -5 4 -7 10 -4 5 3 10 -1
10 -9 0 -9 4 -16 9 -16 5 0 9 -13 9 -30 -1 -16 -4 -27 -8 -25 -13 8 -6 -29 8
-43 7 -8 9 -18 6 -24 -4 -7 -2 -8 4 -4 7 4 12 2 12 -3 0 -6 3 -10 8 -10 16 3
72 -14 72 -22 0 -5 6 -6 14 -3 20 8 14 -26 -6 -37 -10 -5 -14 -17 -11 -29 3
-11 9 -17 14 -14 5 3 9 0 9 -6 0 -6 5 -8 12 -4 10 6 10 4 0 -8 -11 -14 -8 -16
30 -14 41 1 42 0 71 -54 16 -30 29 -63 30 -72 1 -9 5 -14 9 -12 4 3 8 1 8 -4
0 -5 6 -9 13 -10 6 -1 27 -3 45 -5 18 -3 35 -1 38 4 3 5 10 6 16 3 6 -4 9 -3
6 2 -3 5 6 18 20 28 14 11 22 15 19 9 -4 -6 4 -11 18 -12 45 -3 54 -4 53 -10
-2 -19 4 -24 12 -11 8 13 10 13 10 -2 0 -11 5 -15 15 -12 9 4 18 -1 21 -11 4
-9 13 -14 20 -11 8 3 13 0 11 -6 -1 -6 4 -13 12 -16 9 -3 11 0 7 9 -4 8 -1 6
7 -3 8 -10 17 -15 20 -11 4 3 7 1 7 -6 0 -7 5 -9 11 -6 10 7 59 -39 59 -56 0
-5 5 -9 11 -9 5 0 7 -5 3 -12 -4 -7 -3 -8 5 -4 6 4 14 0 17 -8 3 -9 12 -16 20
-16 8 0 14 -5 14 -11 0 -6 7 -9 15 -5 8 3 15 1 15 -5 0 -6 7 -9 15 -5 8 3 15
1 15 -5 0 -6 7 -9 15 -5 9 3 15 0 15 -9 0 -7 8 -14 18 -14 57 -3 105 -18 97
-32 -3 -4 4 -6 16 -4 14 3 19 0 16 -9 -4 -10 1 -12 15 -8 16 4 19 2 13 -8 -5
-8 -3 -11 6 -8 8 3 20 -1 27 -9 8 -7 18 -11 23 -8 5 4 9 1 9 -4 0 -6 9 -11 19
-11 11 0 22 -4 26 -10 4 -6 15 -6 32 1 22 8 24 7 14 -4 -9 -12 -5 -13 28 -7
22 4 45 4 52 -1 7 -4 19 -5 27 -2 8 3 18 0 23 -8 7 -11 9 -11 9 -1 0 10 4 10
15 -2 9 -8 22 -13 30 -10 8 4 15 1 15 -4 0 -6 9 -9 20 -7 11 2 22 0 25 -5 3
-5 13 -6 22 -3 11 5 14 3 8 -6 -6 -10 -3 -11 13 -2 14 7 23 8 27 1 4 -7 13 -6
27 1 11 6 23 7 27 2 3 -4 20 -10 36 -11 17 -2 35 -10 41 -18 14 -17 28 -19 18
-1 -6 9 -4 9 7 0 7 -7 25 -13 39 -13 14 0 32 6 39 13 11 10 12 9 6 -2 -6 -10
-4 -12 6 -5 8 5 19 9 24 9 6 1 9 6 7 13 -1 8 7 11 23 8 17 -3 23 -1 19 6 -5 7
0 9 14 6 12 -4 22 -3 22 0 0 4 32 7 70 6 51 0 69 3 66 12 -3 7 2 10 15 7 10
-3 27 1 36 8 12 10 14 10 9 2 -4 -7 -3 -13 3 -13 5 0 13 5 17 11 3 6 15 9 25
6 11 -3 19 -2 19 2 0 11 103 1 119 -12 12 -9 13 -9 7 1 -9 15 18 16 46 1 16
-9 19 -8 13 2 -6 9 -2 11 13 7 12 -4 20 -3 18 0 -5 9 20 32 27 26 3 -3 8 4 12
15 3 12 11 21 16 21 6 0 8 4 5 9 -6 9 22 26 37 23 4 -1 7 3 7 8 0 6 5 10 11
10 6 0 8 -8 5 -17 -5 -15 -4 -15 9 1 8 11 15 14 15 8 0 -7 5 -12 11 -12 5 0 7
6 3 13 -4 6 2 4 13 -6 11 -9 23 -14 26 -10 4 3 7 1 7 -5 0 -6 9 -9 20 -7 11 2
20 -1 20 -7 0 -6 7 -7 18 -3 9 4 23 8 30 8 6 0 12 4 12 9 0 5 4 7 9 3 5 -3 16
2 24 10 9 8 20 15 26 15 6 0 11 5 11 11 0 5 5 7 10 4 6 -3 10 -1 10 5 0 6 5 8
10 5 6 -3 10 -2 10 4 0 5 9 8 20 6 13 -2 23 2 27 11 5 13 7 13 14 2 7 -10 9
-9 9 4 0 9 5 20 12 24 7 5 8 2 3 -7 -5 -8 -4 -11 1 -6 5 5 10 13 10 18 1 5 2
14 3 20 0 5 6 7 11 4 6 -3 10 3 10 14 0 15 4 19 17 14 10 -4 14 -2 10 4 -10
15 13 21 45 12 22 -6 26 -4 21 8 -5 12 0 12 23 -3 15 -11 25 -14 21 -7 -6 9 1
11 23 8 17 -2 28 0 25 5 -4 7 31 23 47 21 5 -1 7 4 5 10 -2 12 81 62 93 54 4
-3 15 10 24 28 24 52 78 104 105 102 12 -1 25 4 28 12 3 7 11 12 19 11 7 -2
20 6 29 17 9 11 13 14 10 6 -5 -9 1 -8 19 4 14 9 23 21 20 26 -3 5 -1 9 4 9
15 0 61 47 54 56 -4 4 1 4 11 1 11 -4 17 -1 17 8 0 8 4 15 9 15 4 0 22 13 39
29 16 16 33 27 37 23 3 -3 3 1 -1 11 -4 11 0 19 10 23 9 3 16 13 16 21 0 8 4
12 8 9 5 -3 16 4 25 15 9 10 24 19 32 19 8 0 15 5 15 11 0 5 5 7 10 4 6 -3 10
1 10 10 0 9 4 14 9 10 5 -3 12 4 16 14 4 12 12 18 20 14 8 -3 18 2 21 11 3 9
10 16 16 16 5 0 6 -6 3 -12 -4 -7 0 -5 8 4 8 10 17 15 20 11 4 -3 5 4 2 16 -3
15 1 21 13 21 10 0 13 3 7 8 -14 10 28 52 53 52 4 0 0 5 -8 10 -10 6 -11 10
-2 10 6 0 12 9 12 20 0 11 4 20 10 20 5 0 7 7 4 15 -5 11 -2 13 10 9 11 -4 16
-2 14 7 -2 8 2 13 9 12 6 -1 10 5 8 15 -3 22 13 54 25 47 4 -3 6 4 3 15 -4 14
0 20 11 20 9 0 16 5 16 11 0 5 5 7 10 4 6 -4 10 -3 9 2 -3 18 2 34 9 29 4 -3
7 9 6 25 -1 21 4 33 19 41 12 7 25 11 30 10 4 -1 7 3 7 8 0 6 7 10 15 10 13 0
14 4 4 21 -8 17 -8 20 1 14 9 -5 10 -1 5 15 -5 17 -4 21 5 15 9 -6 11 -4 4 6
-4 8 -9 19 -10 26 -3 16 22 36 35 29 5 -3 8 5 7 19 -2 13 1 22 5 19 14 -8 10
6 -6 22 -12 13 -15 12 -25 -6 -6 -11 -8 -20 -5 -20 2 0 -3 -9 -12 -19 -9 -11
-20 -18 -25 -15 -4 3 -11 -1 -14 -10 -3 -8 -12 -12 -19 -10 -9 4 -12 -1 -11
-13 2 -10 -1 -24 -6 -30 -6 -7 -8 -19 -5 -27 4 -10 1 -13 -9 -9 -8 3 -14 2
-13 -3 4 -21 -2 -32 -21 -37 -11 -3 -20 -9 -19 -14 3 -19 -2 -34 -10 -29 -4 3
-7 -5 -6 -18 2 -16 -8 -32 -31 -51 -18 -15 -31 -32 -28 -36 3 -5 0 -9 -5 -9
-6 0 -10 -3 -9 -7 2 -11 -30 -83 -37 -83 -3 0 -3 6 1 13 6 9 5 9 -8 0 -8 -7
-19 -9 -23 -5 -5 4 -5 2 -2 -5 4 -6 0 -18 -9 -27 -8 -9 -13 -20 -9 -25 8 -14
-41 -44 -56 -35 -7 4 -9 3 -5 -4 3 -6 -3 -14 -15 -17 -11 -4 -18 -9 -15 -12 3
-3 -7 -17 -22 -29 -27 -24 -62 -32 -62 -14 0 5 -7 7 -15 4 -8 -4 -15 -1 -15 5
0 6 -6 10 -12 8 -7 -1 -12 4 -10 11 1 8 -2 11 -7 8 -5 -3 -17 6 -26 20 -9 15
-12 23 -6 20 6 -4 12 -2 12 3 1 6 3 14 4 19 2 4 6 17 10 29 4 13 11 20 16 17
8 -5 13 9 10 29 -1 7 15 11 32 8 4 0 7 5 7 13 0 8 7 17 16 20 8 3 12 10 9 16
-3 5 -1 10 5 10 6 0 10 6 9 13 -3 24 1 38 10 33 5 -4 8 2 7 11 -3 20 15 43 28
35 5 -3 7 2 3 11 -4 10 -2 16 5 14 10 -2 20 24 19 51 -2 31 -5 42 -12 42 -4 0
-10 7 -13 16 -3 8 -2 13 3 10 5 -3 12 1 15 10 4 9 9 14 13 11 9 -10 65 33 60
47 -2 6 0 19 5 30 7 13 7 16 -1 12 -6 -4 -11 -1 -11 7 0 20 -29 30 -47 16 -7
-7 -11 -14 -8 -17 3 -3 -5 -17 -17 -31 -14 -15 -16 -20 -5 -12 17 14 17 13 6
-15 -7 -16 -17 -33 -22 -39 -7 -7 -8 -6 -3 2 4 7 -1 9 -15 6 -14 -4 -17 -8 -9
-13 7 -5 9 -13 5 -21 -5 -7 -10 -29 -12 -48 -6 -64 -7 -70 -13 -66 -3 2 -23
-14 -44 -36 -21 -21 -35 -39 -30 -39 5 0 1 -5 -9 -11 -9 -6 -15 -14 -12 -20 6
-8 -8 -13 -27 -10 -5 0 -8 -6 -8 -15 0 -8 -4 -13 -9 -10 -4 3 -6 -7 -3 -22 3
-15 1 -24 -3 -20 -5 5 -15 -1 -22 -12 -11 -15 -21 -19 -46 -15 -17 4 -34 11
-38 16 -3 6 -10 10 -15 10 -12 -1 -12 21 0 37 7 9 6 16 -3 21 -9 6 0 21 33 55
25 25 46 43 46 39 0 -5 5 0 11 10 6 9 15 15 20 11 5 -3 9 -2 8 3 -3 20 2 34
11 28 6 -3 15 6 20 20 6 16 14 23 22 19 6 -4 8 -3 4 4 -3 6 -2 13 4 17 6 4 8
11 4 16 -3 5 0 8 7 7 7 -2 19 9 26 24 8 16 25 31 38 34 14 3 22 10 19 15 -3 5
-1 9 3 9 5 0 10 14 11 31 2 19 -1 28 -8 24 -6 -4 -1 10 10 30 11 20 15 33 8
29 -10 -6 -11 -4 0 7 6 7 12 21 12 32 0 10 4 16 9 12 6 -3 8 3 6 14 -2 11 3
22 11 25 9 3 12 10 9 16 -3 5 1 10 10 10 11 0 15 5 12 14 -3 8 1 17 10 20 9 4
13 13 9 22 -3 8 -2 13 3 10 5 -3 17 6 26 20 12 18 13 24 4 19 -8 -3 -6 0 4 8
9 8 17 26 17 41 0 15 4 25 9 22 5 -4 7 3 4 13 -3 11 4 28 16 40 12 12 19 26
16 31 -4 6 -1 10 6 10 7 0 9 3 6 7 -4 3 -2 12 4 19 7 8 7 14 -1 19 -8 5 -8 11
1 21 6 8 8 14 3 14 -4 0 1 7 12 16 10 8 13 13 6 9 -14 -7 -13 29 1 52 6 9 3
11 -9 6 -12 -4 -15 -3 -10 6 5 7 2 10 -6 9 -7 -2 -12 4 -10 12 2 9 -5 6 -19
-8 -12 -13 -21 -35 -21 -48 -1 -13 -5 -27 -10 -30 -6 -4 -5 -10 3 -15 11 -7
11 -9 -1 -9 -13 0 -13 -1 0 -10 13 -9 13 -10 0 -10 -13 0 -13 -1 0 -10 13 -9
13 -10 0 -10 -13 0 -13 -2 -1 -9 12 -8 12 -12 2 -25 -7 -8 -10 -20 -6 -25 4
-7 -1 -8 -11 -4 -11 4 -15 3 -10 -5 4 -7 -1 -10 -14 -7 -20 4 -45 23 -48 38
-1 4 -3 8 -3 10 -1 1 -2 13 -3 27 -1 14 -5 31 -9 38 -5 6 -4 12 1 12 5 0 9 7
9 15 0 8 -4 15 -8 15 -9 0 -6 20 5 39 7 10 6 12 -4 6 -10 -6 -12 -4 -7 8 3 10
2 17 -4 17 -6 0 -7 5 -4 10 9 15 -4 12 -21 -4 -8 -8 -14 -22 -14 -30 0 -9 -4
-16 -10 -16 -5 0 -10 -5 -10 -11 0 -5 5 -7 12 -3 8 5 8 3 2 -7 -5 -8 -9 -25
-10 -40 0 -29 -27 -72 -38 -62 -4 4 -4 -1 0 -11 5 -13 4 -17 -3 -13 -6 4 -14
0 -17 -9 -3 -8 -10 -13 -14 -10 -5 3 -8 -5 -7 -17 1 -12 0 -26 -4 -32 -6 -11
-12 -32 -13 -52 -1 -7 -5 -13 -10 -13 -5 0 -6 -5 -3 -10 3 -6 -1 -17 -9 -26
-9 -8 -16 -22 -16 -30 0 -8 -4 -14 -9 -14 -5 0 -12 -7 -15 -16 -3 -8 -2 -13 3
-10 5 4 4 -5 -2 -19 -7 -14 -16 -25 -22 -25 -5 0 -3 -5 5 -10 11 -7 11 -10 2
-10 -7 0 -10 -5 -7 -10 3 -5 1 -10 -4 -10 -6 0 -10 -6 -8 -13 1 -6 -4 -11 -12
-9 -12 3 -12 1 0 -14 9 -12 9 -15 2 -10 -8 4 -13 2 -13 -5 0 -6 -8 -18 -17
-26 -12 -10 -13 -12 -3 -8 8 4 6 -1 -4 -9 -11 -9 -16 -16 -11 -16 5 0 -1 -9
-13 -20 -12 -12 -22 -25 -22 -30 0 -5 -14 -19 -32 -31 -18 -14 -28 -17 -24 -8
4 7 1 6 -7 -3 -8 -10 -17 -15 -20 -11 -4 3 -13 1 -20 -5 -8 -7 -17 -9 -20 -5
-4 3 -7 0 -7 -7 0 -7 -3 -10 -7 -7 -3 4 -16 -1 -27 -10 -20 -17 -20 -17 -6 1
15 19 15 19 -17 1 -18 -10 -29 -23 -26 -28 3 -6 1 -7 -4 -4 -6 4 -22 -3 -37
-14 -18 -14 -26 -17 -27 -7 -10 157 -85 372 -180 508 -49 72 -174 200 -194
200 -3 0 -35 22 -72 48 -38 26 -94 63 -125 80 -83 48 -132 111 -144 188 -22
140 -34 522 -20 644 21 185 51 209 254 210 131 0 182 -12 201 -48 33 -62 33
-204 -1 -270 -21 -41 -95 -61 -232 -63 -111 -2 -154 -49 -122 -133 25 -64 40
-69 212 -62 182 7 205 10 272 43 43 22 57 35 77 78 40 80 58 235 43 361 -10
89 -10 91 -35 145 -43 95 -124 153 -231 165 -56 6 -401 6 -452 0 -56 -7 -87
-23 -135 -70 -52 -53 -73 -111 -80 -231 -3 -44 -8 -127 -11 -185 -19 -305 3
-633 51 -737 28 -62 93 -135 147 -165 21 -12 38 -25 38 -30 0 -4 5 -8 11 -8
18 0 198 -132 255 -186 27 -27 62 -65 76 -84 27 -37 87 -152 94 -179 2 -9 12
-46 23 -84 21 -73 29 -115 37 -192 8 -91 15 -120 39 -161 25 -43 23 -63 -3
-41 -10 7 -13 8 -9 1 4 -7 -3 -14 -18 -18 -14 -4 -23 -11 -20 -16 4 -6 -1 -13
-9 -16 -9 -3 -13 -10 -10 -15 3 -5 -2 -9 -11 -9 -9 0 -14 -4 -11 -8 3 -5 -10
-14 -29 -20 -19 -5 -33 -7 -30 -3 2 5 -7 6 -20 3 -14 -2 -25 0 -25 7 0 5 -6 8
-14 5 -8 -3 -24 -1 -35 5 -11 6 -22 7 -25 2 -3 -4 -16 -6 -30 -4 -13 3 -27 -1
-31 -8 -6 -8 -4 -10 5 -4 8 5 11 4 6 -3 -4 -6 -13 -9 -21 -6 -8 4 -18 -1 -21
-10 -3 -9 -13 -16 -21 -16 -8 0 -12 -4 -9 -9 3 -5 -3 -11 -15 -14 -24 -6 -88
31 -89 53 -1 10 -3 11 -7 3 -3 -9 -10 -10 -24 -3 -10 6 -19 7 -19 2 0 -4 -10
-8 -22 -8 -33 -1 -89 -12 -96 -18 -3 -3 -12 0 -20 7 -10 7 -13 8 -9 1 8 -13
-15 -21 -55 -20 -14 1 -24 -3 -21 -8 4 -5 -3 -7 -15 -4 -12 4 -22 2 -22 -4 0
-5 -4 -6 -10 -3 -5 3 -10 1 -10 -5 0 -6 -4 -8 -10 -5 -5 3 -10 1 -10 -6 0 -7
-3 -10 -6 -6 -4 3 -13 -1 -21 -9 -8 -8 -19 -12 -24 -9 -5 4 -9 2 -9 -4 0 -5
-11 -8 -25 -6 -14 1 -25 -3 -25 -9 0 -6 -5 -4 -10 4 -8 13 -10 12 -10 -4 0
-19 0 -19 -13 -1 -8 10 -19 15 -25 11 -7 -4 -12 -3 -12 3 0 6 -7 8 -15 5 -8
-4 -15 -1 -15 5 0 6 -7 8 -15 5 -9 -4 -15 0 -15 7 0 11 -3 11 -10 -1 -9 -13
-11 -13 -20 0 -9 13 -11 13 -20 0 -7 -12 -10 -12 -10 -1 0 7 -6 11 -15 8 -8
-4 -17 -1 -21 5 -4 7 -9 6 -14 -2 -5 -8 -11 -7 -23 4 -11 11 -18 13 -23 5 -5
-8 -8 -8 -14 0 -4 7 -17 13 -28 14 -12 1 -22 4 -22 8 0 3 -8 6 -17 6 -35 0
-44 3 -38 12 3 6 -3 8 -14 6 -11 -2 -25 3 -32 11 -6 8 -18 14 -25 14 -8 0 -14
5 -14 12 0 6 -3 8 -7 5 -3 -4 -12 -2 -20 4 -7 6 -13 8 -13 5 0 -4 -7 0 -16 8
-8 9 -19 14 -24 11 -5 -3 -11 -1 -15 5 -4 7 -13 7 -26 -1 -11 -6 -26 -8 -34
-6 -7 3 -18 0 -24 -6 -8 -8 -11 -8 -11 0 0 7 -9 10 -20 8 -11 -2 -20 0 -20 6
0 5 -7 9 -16 9 -8 0 -22 7 -31 16 -9 8 -22 13 -30 10 -8 -3 -11 -1 -8 4 3 6
-1 10 -9 10 -9 0 -16 5 -16 11 0 6 -7 9 -15 5 -8 -3 -15 -1 -15 5 0 9 -38 27
-74 35 -22 4 -52 -21 -36 -31 8 -5 8 -11 1 -19 -7 -9 -7 -17 2 -26 10 -10 9
-11 -3 -5 -13 8 -13 6 -1 -8 18 -23 8 -47 -18 -40 -12 3 -18 9 -15 14 3 5 -2
6 -10 3 -9 -3 -16 -1 -16 6 0 6 -4 8 -10 5 -5 -3 -15 5 -21 19 -7 14 -15 23
-19 21 -4 -3 -10 5 -13 16 -3 12 -10 18 -16 14 -10 -6 -16 8 -12 28 1 5 -3 6
-9 2 -5 -3 -13 1 -16 10 -4 9 -13 14 -22 10 -13 -5 -13 -3 -1 12 9 11 10 14 2
9 -8 -4 -23 3 -38 18 -14 15 -30 26 -35 26 -5 0 -17 13 -27 30 -9 16 -20 30
-23 30 -14 0 -9 61 5 66 8 3 12 11 8 17 -4 7 0 8 13 3 10 -4 15 -4 11 0 -4 4
5 18 19 31 14 12 22 23 18 23 -3 0 -1 6 5 14 6 8 10 20 9 27 -5 20 -31 48 -40
43 -4 -3 -8 0 -8 5 0 6 -5 11 -10 11 -22 0 -80 64 -80 87 0 16 -4 22 -12 17
-8 -5 -9 0 -6 14 4 12 2 22 -4 22 -5 0 -7 3 -4 8 2 4 -7 13 -20 19 -20 9 -26
9 -30 -2 -3 -8 -12 -11 -20 -8 -8 3 -14 0 -14 -5 0 -6 -9 -14 -20 -17 -11 -4
-18 -11 -15 -16 4 -5 -1 -12 -9 -15 -9 -3 -13 -10 -10 -15 8 -14 -6 -50 -17
-44 -5 4 -9 -1 -9 -10 0 -10 -4 -13 -12 -8 -7 4 -19 8 -26 9 -25 4 -42 27 -40
55 2 29 21 44 40 32 6 -3 8 -1 5 4 -7 11 16 36 25 28 3 -3 11 2 19 12 9 11 10
14 2 9 -17 -9 -17 6 0 23 10 10 8 11 -7 5 -14 -5 -17 -4 -12 4 4 7 0 15 -9 18
-11 5 -13 10 -5 19 5 6 6 15 2 19 -4 4 -8 25 -9 47 -3 59 -5 69 -15 69 -5 0
-7 4 -3 9 3 5 1 12 -5 16 -6 4 -8 11 -5 16 4 5 1 9 -5 9 -7 0 -10 6 -8 12 3 7
-4 21 -13 32 -10 10 -16 23 -13 28 3 4 0 8 -5 8 -6 0 -11 9 -11 21 0 11 -5 17
-10 14 -9 -6 -14 10 -13 43 1 6 -4 12 -11 12 -6 0 -4 5 4 10 8 5 10 10 4 10
-6 0 -11 20 -11 45 -1 25 -7 53 -14 62 -10 11 -10 14 -2 9 9 -5 11 -2 7 8 -3
9 -9 14 -14 11 -4 -2 -6 7 -4 20 1 14 -1 25 -6 25 -4 0 -11 7 -14 16 -4 10 -2
13 7 8 7 -5 5 0 -3 11 -8 10 -15 28 -15 40 -1 13 -7 30 -14 39 -12 14 -12 16
2 10 12 -4 14 -1 10 15 -3 11 -9 18 -14 15 -5 -3 -5 6 1 20 7 18 6 26 -1 26
-8 0 -7 6 2 16 10 12 10 17 0 23 -16 10 -16 22 1 32 11 7 11 9 -1 9 -10 0 -11
3 -2 14 9 11 9 16 0 21 -8 6 -7 10 2 16 9 6 10 9 2 9 -6 0 -10 8 -8 18 2 9 4
17 5 17 1 0 2 15 3 33 1 17 -1 32 -4 32 -7 0 -4 84 5 98 3 6 2 13 -3 17 -6 3
-8 12 -5 20 4 8 11 12 18 8 6 -4 5 1 -3 10 -7 9 -9 17 -4 17 5 0 9 10 8 23 -1
12 2 25 7 28 4 3 9 24 11 46 1 23 5 39 10 36 4 -2 8 10 8 26 2 40 3 43 13 60
7 10 6 12 -4 6 -10 -6 -11 -4 -4 6 13 21 14 39 1 39 -8 0 -7 4 2 9 7 5 10 14
7 20 -4 6 -2 11 5 11 8 0 7 5 -2 17 -10 11 -10 14 -1 9 7 -4 13 -2 14 6 0 7 2
18 2 24 1 6 7 19 15 28 7 9 10 16 7 16 -4 0 0 7 8 16 9 8 14 19 11 24 -3 4 2
10 10 14 8 3 15 16 15 30 0 13 6 27 13 29 9 4 9 6 -1 6 -10 1 -10 4 0 15 7 8
16 12 21 9 4 -2 7 5 7 17 0 12 4 19 9 16 5 -3 12 1 15 10 3 8 10 13 14 10 5
-3 6 9 4 26 -3 20 -1 29 6 24 6 -4 10 2 9 14 -1 11 -6 20 -11 20 -6 0 -5 5 2
12 9 9 8 16 -5 30 -10 12 -12 18 -4 18 7 0 9 5 4 12 -10 18 -4 71 10 83 7 6
13 15 14 22 3 13 63 77 63 67 0 -4 8 3 19 14 10 12 26 22 34 22 11 0 14 5 10
15 -3 9 -1 15 4 13 9 -3 22 8 98 79 18 17 35 29 38 27 8 -8 57 18 51 27 -3 5
7 11 21 15 14 3 25 12 25 19 0 7 10 11 26 9 17 -1 24 2 21 10 -3 7 1 13 9 14
8 1 21 3 29 4 8 1 15 8 15 17 0 14 2 14 10 1 8 -13 10 -12 10 3 0 9 7 17 15
17 8 0 15 5 15 11 0 5 5 7 10 4 6 -3 10 -2 10 4 0 5 8 8 18 7 9 -2 20 1 23 6
3 5 15 10 27 11 11 0 20 4 20 7 -2 20 4 30 12 25 6 -4 16 -2 23 4 7 5 25 12
41 15 15 3 35 11 44 18 12 10 14 10 8 1 -12 -21 8 -15 23 6 8 11 20 17 28 14
7 -3 13 2 13 12 0 9 4 14 9 10 5 -3 13 0 16 6 4 5 13 8 21 5 8 -3 13 -2 11 2
-1 4 3 9 8 11 18 8 33 26 28 34 -2 4 0 7 6 7 6 0 8 8 4 18 -8 22 -43 56 -43
42 0 -6 -6 -10 -12 -9 -30 4 -47 -3 -74 -28 -16 -15 -32 -26 -36 -25 -5 1 -8
-3 -8 -9 0 -5 -5 -7 -12 -3 -6 4 -17 -1 -25 -11 -7 -11 -13 -13 -13 -6 0 7 -5
9 -11 5 -7 -4 -26 -7 -42 -6 -38 1 -67 -14 -67 -34 0 -8 -4 -12 -10 -9 -5 3
-10 0 -10 -8 0 -14 -7 -16 -64 -20 -19 -1 -32 -5 -29 -9 2 -5 -5 -8 -15 -8
-23 0 -46 -25 -37 -40 3 -6 -3 -10 -14 -10 -12 0 -21 -5 -21 -11 0 -6 -7 -8
-16 -5 -8 3 -13 2 -10 -3 3 -5 -1 -11 -8 -14 -8 -3 -17 -1 -20 6 -2 7 -5 4 -5
-7 -1 -12 -6 -16 -16 -12 -8 3 -15 1 -15 -5 0 -6 -4 -7 -10 -4 -5 3 -10 1 -10
-5 0 -6 -5 -8 -10 -5 -6 3 -13 -1 -16 -9 -3 -9 -10 -13 -16 -10 -5 3 -20 -6
-32 -19 -13 -14 -27 -23 -30 -20 -3 4 -6 -3 -6 -15 0 -15 -5 -20 -15 -16 -8 4
-15 1 -15 -5 0 -6 -9 -11 -21 -11 -11 0 -17 -4 -14 -10 3 -5 2 -10 -3 -10 -6
0 -26 -16 -45 -35 -19 -19 -37 -32 -40 -29 -3 3 -8 -4 -12 -15 -3 -12 -10 -19
-15 -16 -4 3 -11 -2 -14 -11 -3 -9 -11 -12 -18 -8 -7 4 -10 4 -6 0 3 -4 -18
-31 -48 -60 -29 -29 -51 -56 -47 -60 6 -5 -11 -10 -29 -7 -4 0 -5 -5 -3 -12 6
-15 -39 -69 -50 -59 -5 4 -5 2 -2 -4 4 -7 -6 -26 -22 -43 -15 -16 -26 -33 -22
-37 3 -4 -2 -4 -11 -1 -10 3 -17 3 -16 -1 3 -14 -35 -81 -44 -76 -4 3 -5 -2
-2 -10 4 -11 0 -16 -11 -16 -9 0 -14 -4 -10 -9 3 -6 -2 -14 -11 -19 -11 -6
-15 -16 -11 -26 4 -11 3 -15 -4 -11 -6 4 -13 -2 -16 -14 -3 -12 -12 -21 -20
-21 -8 0 -11 -5 -8 -10 3 -6 -1 -13 -9 -16 -9 -3 -16 -12 -16 -20 0 -8 -4 -14
-10 -14 -5 0 -10 -5 -10 -11 0 -5 4 -8 9 -5 5 4 6 -9 1 -29 -5 -24 -4 -38 5
-45 14 -11 1 -64 -23 -92 -6 -8 -9 -18 -5 -22 4 -4 1 -11 -7 -16 -10 -6 -11
-10 -3 -10 12 0 12 -54 1 -66 -11 -10 -68 -22 -68 -14 0 5 -9 7 -20 5 -11 -2
-18 0 -15 4 3 5 -3 12 -12 15 -15 6 -15 8 -3 16 8 6 10 10 4 10 -12 0 -12 28
-1 47 4 6 3 14 -2 18 -6 3 -8 12 -5 20 4 8 11 12 18 8 6 -4 5 1 -3 10 -9 12
-10 17 -2 17 7 0 9 4 6 10 -3 5 0 20 7 32 7 13 11 26 10 31 -1 4 3 7 9 7 5 0
7 5 4 10 -3 6 -2 10 4 10 6 0 13 11 17 25 4 15 11 22 18 18 6 -4 5 1 -3 10
-11 14 -11 17 0 17 9 0 10 3 4 8 -14 9 -12 59 2 73 6 6 9 17 6 24 -2 8 1 23 7
35 7 13 8 20 3 17 -6 -4 -11 17 -12 50 -1 31 -4 60 -7 64 -3 5 -1 9 4 9 5 0 8
13 6 30 -2 16 1 32 6 35 6 4 8 11 5 16 -4 5 -1 9 5 9 6 0 9 4 6 9 -6 10 38 73
46 65 3 -2 8 2 11 10 4 11 1 13 -11 10 -12 -4 -11 -2 3 7 30 19 85 76 85 88 0
6 7 11 15 11 8 0 14 4 13 9 -2 4 25 35 59 69 34 33 59 63 56 66 -4 3 2 6 12 6
10 0 15 3 12 7 -4 3 2 13 13 20 11 8 18 19 15 24 -3 5 1 6 10 3 9 -4 15 -3 13
2 -2 5 1 11 7 14 5 3 21 17 36 33 14 15 32 27 38 27 7 0 10 4 7 8 -3 5 8 16
25 26 16 9 29 14 29 10 0 -4 7 1 16 12 8 10 13 12 9 4 -4 -10 -2 -9 8 2 8 10
17 15 20 11 4 -3 7 -1 7 6 0 7 5 9 10 6 6 -3 10 1 10 9 0 9 7 16 15 16 8 0 15
3 15 8 0 4 15 13 33 21 17 8 40 23 50 35 10 11 15 14 11 6 -4 -8 4 -3 19 13
14 15 31 27 37 27 6 0 8 5 5 10 -6 9 8 14 28 11 4 0 7 4 7 10 0 7 9 9 21 6 12
-3 18 -3 15 0 -5 5 46 43 64 48 3 1 21 9 41 18 19 8 47 14 62 13 15 -2 28 3
31 10 3 8 11 11 18 9 8 -3 23 3 34 14 16 15 25 16 40 8 18 -10 18 -9 4 8 -8
10 -10 16 -3 12 6 -4 23 -3 37 3 19 7 26 6 26 -3 0 -8 3 -8 9 2 5 7 21 14 35
14 15 0 29 4 32 8 3 5 10 7 15 4 5 -4 9 -2 9 4 0 5 9 8 20 6 11 -2 20 0 20 4
0 9 48 26 63 23 4 -1 7 6 7 16 0 10 3 13 8 7 8 -12 55 -18 48 -6 -3 4 11 7 30
6 18 -1 34 2 34 6 0 5 7 9 16 9 10 0 12 -5 7 -12 -4 -7 4 -6 19 4 18 12 28 14
36 6 9 -9 16 -7 30 5 10 9 23 17 28 17 5 0 2 -5 -6 -10 -9 -6 -10 -10 -3 -10
6 0 19 10 27 22 9 12 26 23 38 25 13 2 25 8 26 13 2 6 14 10 26 10 12 0 28 6
35 13 11 10 14 9 18 -1 4 -10 8 -10 21 0 13 11 14 11 8 0 -7 -11 -4 -12 12 -3
15 8 21 8 25 -2 3 -9 7 -9 20 2 10 7 17 9 17 4 0 -5 9 -9 20 -10 11 -1 18 2
16 6 -3 4 1 8 9 8 8 0 15 -3 15 -7 0 -9 32 -6 48 4 7 4 12 2 12 -4 0 -6 11 -8
28 -4 15 3 33 6 40 6 6 1 12 6 12 11 0 5 7 7 15 3 8 -3 15 -2 15 2 0 4 9 8 20
8 11 0 20 -4 20 -8 0 -4 9 -8 20 -8 11 0 20 -4 20 -9 0 -5 11 -12 25 -15 14
-4 25 -12 25 -19 0 -8 4 -7 10 3 7 11 10 11 10 2 0 -7 5 -10 10 -7 6 3 10 1
10 -6 0 -7 3 -9 7 -6 3 4 13 1 21 -6 13 -10 15 -9 8 3 -4 8 0 6 8 -4 12 -15
16 -16 16 -5 1 10 3 9 11 -4 6 -9 14 -15 20 -12 5 4 9 2 9 -3 0 -5 6 -9 13 -9
30 -2 87 -12 96 -17 5 -4 12 -2 15 2 3 5 19 8 36 7 16 -1 30 2 30 7 0 5 5 6
10 3 6 -4 17 -1 25 5 12 10 15 10 15 0 0 -9 6 -8 19 4 13 12 21 14 26 6 5 -8
12 -6 25 5 10 9 24 14 29 10 6 -3 11 -1 11 5 0 6 5 8 10 5 6 -3 10 -1 10 5 0
6 4 8 10 5 5 -3 7 0 4 8 -3 8 0 18 5 22 6 3 10 9 7 13 -2 4 8 18 22 32 13 14
21 18 18 10 -6 -12 -5 -12 6 1 16 19 143 26 132 7 -4 -7 -2 -8 4 -4 6 4 25 0
41 -9 32 -16 78 -14 74 4 -2 5 4 8 11 5 10 -4 14 0 12 13 -2 10 1 21 6 24 5 3
11 16 13 30 8 43 27 79 38 72 6 -4 8 0 5 9 -4 8 -2 21 3 29 5 10 1 20 -14 34
-26 24 -35 64 -9 43 13 -12 14 -11 2 8 -10 16 -21 20 -56 18 -24 -1 -46 2 -50
7 -3 5 -14 4 -26 -2 -17 -9 -20 -9 -15 4 4 11 0 13 -14 10 -12 -3 -19 0 -19 8
0 11 -2 11 -10 -1 -8 -13 -10 -12 -10 3 0 9 -5 17 -12 17 -6 0 -3 7 8 16 18
15 18 15 -4 10 -19 -4 -22 -1 -18 12 6 16 5 16 -7 1 -8 -11 -19 -14 -32 -9
-11 4 -29 6 -40 4 -10 -2 -26 3 -34 9 -10 8 -13 8 -8 1 4 -7 -2 -12 -16 -12
-12 0 -28 -1 -36 -3 -7 -2 -15 4 -16 14 -2 9 1 14 7 11 5 -3 4 3 -3 14 -9 14
-17 18 -25 12 -6 -6 -14 -7 -17 -3 -10 10 -57 10 -57 0z m-2699 -2326 c7 11 9
11 9 1 0 -7 5 -10 10 -7 6 3 10 -1 10 -9 0 -9 4 -16 9 -16 5 0 8 -8 6 -17 -2
-10 -4 -20 -4 -23 -1 -3 -10 -11 -22 -18 -12 -8 -18 -9 -14 -3 9 15 -8 14 -23
-1 -9 -9 -12 -9 -12 0 0 7 -5 12 -11 12 -5 0 -7 -4 -4 -10 3 -5 4 -10 2 -10
-3 0 -14 15 -25 33 l-19 34 21 14 c33 22 51 27 55 17 2 -6 7 -4 12 3z m-330
-125 c1 -12 0 -28 -1 -36 -2 -18 -34 -42 -38 -29 -2 5 -8 7 -13 3 -5 -3 -9 7
-9 22 0 47 59 85 61 40z m599 -1098 c0 -5 5 -6 10 -3 7 4 10 -6 8 -28 -2 -40
-27 -47 -48 -14 -9 15 -9 18 2 11 10 -6 10 -4 -1 9 -9 12 -10 17 -2 17 7 0 10
4 7 8 -3 5 1 9 9 9 8 0 15 -4 15 -9z m3571 -331 c-10 -9 -11 -8 -5 6 3 10 9
15 12 12 3 -3 0 -11 -7 -18z m-501 -447 c3 -1 14 -3 25 -4 12 0 19 -8 19 -18
-1 -10 3 -18 9 -18 5 0 1 -8 -10 -17 -11 -10 -18 -24 -16 -30 3 -7 -2 -13 -11
-13 -9 0 -16 -4 -16 -9 0 -5 -12 -8 -26 -6 -20 2 -24 -1 -19 -14 4 -9 -4 -6
-19 9 -13 14 -25 32 -26 40 -4 31 0 51 10 45 6 -3 10 1 10 9 0 9 3 15 8 15 19
-3 33 2 28 10 -5 8 14 8 34 1z m-2286 -492 c18 -18 22 -33 6 -23 -5 3 -10 0
-10 -8 0 -22 -25 -27 -49 -11 -22 16 -29 44 -10 44 5 0 8 4 5 8 -10 16 41 7
58 -10z"/>
<path d="M2332 5343 c-6 -2 -9 -10 -5 -16 4 -7 -1 -6 -10 2 -10 8 -20 11 -24
7 -3 -3 -1 -6 5 -6 6 0 9 -6 6 -13 -3 -9 4 -13 20 -13 20 0 25 5 24 23 -2 13
-3 23 -3 22 0 0 -6 -3 -13 -6z"/>
<path d="M3946 5168 c3 -4 -6 -13 -20 -20 -14 -6 -26 -15 -26 -20 0 -5 -5 -6
-11 -2 -6 3 -16 0 -21 -7 -8 -11 -11 -11 -15 -1 -4 10 -8 9 -17 -4 -10 -13
-15 -14 -21 -4 -6 9 -4 11 5 5 9 -5 11 -4 6 4 -11 18 -25 3 -21 -21 5 -23 24
-40 37 -32 4 3 8 0 8 -7 0 -7 3 -9 7 -6 3 4 12 2 20 -4 9 -9 13 -8 13 0 0 8 6
9 18 3 9 -5 23 -7 30 -5 6 3 12 -1 12 -9 0 -10 3 -9 10 2 6 9 10 10 10 3 0 -7
10 -10 26 -7 18 3 23 1 18 -7 -5 -9 -2 -10 9 -6 10 3 17 2 17 -4 0 -6 4 -8 8
-5 5 3 29 -9 53 -27 24 -17 40 -26 35 -19 -10 17 -1 15 18 -4 10 -9 16 -11 16
-4 0 7 7 5 16 -4 8 -9 19 -14 24 -11 5 3 11 -4 15 -15 3 -11 13 -20 21 -20 8
0 14 -4 14 -10 0 -5 7 -10 16 -10 8 0 13 -3 11 -7 -3 -5 5 -17 16 -28 11 -11
17 -14 13 -8 -5 9 -2 11 8 7 9 -3 14 -9 12 -13 -3 -4 12 -16 32 -27 20 -10 45
-28 55 -39 10 -11 16 -13 12 -5 -4 10 -2 9 8 -2 8 -10 18 -18 22 -18 16 0 64
-49 52 -53 -7 -3 -4 -6 6 -6 21 -1 93 -71 102 -100 3 -11 15 -23 26 -26 10 -4
17 -12 13 -18 -3 -7 2 -3 10 7 15 18 21 15 16 -9 -1 -5 7 -2 18 8 10 9 22 14
25 10 4 -3 7 3 7 15 0 12 10 31 23 43 12 12 16 18 8 14 -11 -6 -13 -4 -8 9 4
10 7 22 7 27 0 6 6 7 13 4 6 -4 5 -1 -4 7 -9 7 -14 19 -12 25 3 7 -2 16 -11
19 -9 3 -14 10 -11 15 3 4 -4 6 -16 4 -14 -3 -19 0 -16 9 3 8 -1 13 -11 12 -9
0 -16 4 -15 10 1 7 -6 10 -17 7 -12 -3 -20 0 -20 7 0 15 -26 41 -34 33 -3 -4
-6 -1 -6 6 0 7 -5 9 -10 6 -6 -3 -26 10 -45 30 -19 20 -39 34 -45 30 -5 -3
-10 -1 -10 4 0 6 -7 11 -15 11 -8 0 -15 5 -15 11 0 5 -4 8 -9 5 -5 -3 -12 1
-15 10 -3 8 -10 12 -16 9 -5 -3 -10 1 -10 10 0 9 -5 13 -10 10 -6 -3 -13 1
-16 10 -5 13 -9 13 -22 3 -12 -10 -14 -10 -8 0 4 7 1 12 -9 12 -8 0 -18 7 -21
15 -4 8 -10 13 -14 10 -5 -3 -13 3 -19 12 -6 10 -11 14 -11 9 0 -5 -8 0 -17
11 -10 11 -29 19 -41 18 -13 -1 -30 5 -38 12 -8 8 -19 11 -25 7 -7 -4 -9 -3
-6 3 8 12 -36 35 -78 41 -16 2 -33 9 -37 15 -4 7 -8 8 -8 3 0 -5 -10 -1 -22
10 -14 13 -19 14 -14 4 7 -13 6 -13 -6 0 -13 15 -61 23 -52 8z"/>
<path d="M2884 4937 c-8 -4 -19 -5 -24 -2 -6 3 -10 1 -10 -5 0 -7 -5 -10 -12
-8 -16 6 -48 -23 -41 -36 4 -6 -2 -4 -12 4 -11 9 -16 10 -11 3 4 -7 3 -13 -2
-13 -5 0 -7 -11 -5 -24 3 -16 14 -27 32 -32 39 -11 124 -11 139 -1 6 5 12 6
12 1 0 -5 11 -9 24 -9 13 0 22 3 20 7 -3 4 5 6 16 5 11 -1 20 -6 20 -12 0 -6
3 -7 8 0 10 13 32 17 32 6 0 -5 11 -8 25 -5 16 3 25 0 25 -8 0 -8 3 -9 8 -3
10 14 35 13 45 -2 5 -8 17 -9 37 -3 19 5 28 5 25 -1 -7 -10 23 -8 41 4 6 3 14
3 18 0 8 -8 29 -12 73 -16 17 -1 29 -4 27 -6 -7 -7 88 -41 98 -35 4 3 8 0 8
-5 0 -6 9 -11 19 -11 11 0 23 -5 26 -10 4 -6 10 -8 15 -5 4 3 10 -2 14 -10 3
-8 12 -12 20 -9 8 3 17 0 21 -5 3 -6 11 -9 16 -6 5 4 9 2 9 -2 0 -5 10 -9 22
-10 11 -1 25 -8 29 -15 6 -9 9 -7 9 7 0 12 3 16 8 9 4 -6 16 -14 26 -17 16 -6
17 -5 7 7 -10 12 -9 13 8 9 13 -3 21 -1 21 6 0 7 4 10 8 7 4 -2 9 4 9 15 1 12
-2 17 -9 13 -7 -5 -9 -1 -5 9 3 9 1 19 -5 23 -7 4 -8 3 -4 -4 4 -7 2 -12 -3
-12 -6 0 -11 5 -11 10 0 6 -7 10 -15 10 -8 0 -15 5 -15 11 0 5 -4 7 -10 4 -5
-3 -19 6 -32 20 -12 14 -28 25 -35 25 -8 0 -12 4 -9 8 2 4 -3 8 -12 9 -17 1
-116 12 -139 15 -7 1 -13 5 -13 10 0 5 -9 6 -20 3 -12 -4 -19 -2 -18 3 2 6 -1
10 -6 10 -5 0 -13 6 -17 14 -7 10 -9 10 -9 -2 0 -13 -1 -13 -10 0 -8 12 -10
12 -10 1 0 -10 -3 -11 -14 -2 -8 7 -28 13 -45 13 -17 1 -28 5 -25 10 3 4 -7 8
-23 9 -15 0 -43 2 -61 3 -18 1 -35 -1 -38 -6 -3 -5 -10 -5 -16 -2 -6 4 -14 0
-19 -7 -6 -10 -9 -11 -9 -1 0 6 -5 12 -11 12 -5 0 -7 -6 -3 -12 6 -10 5 -10
-7 -1 -12 10 -18 10 -27 1 -9 -9 -12 -9 -12 1 0 11 -3 11 -15 1 -10 -9 -15 -9
-15 -1 0 6 -3 10 -7 9 -5 -1 -19 4 -32 11 -13 7 -21 8 -17 3 3 -6 -4 -5 -18 1
-13 7 -23 14 -21 17 5 8 -45 6 -61 -3z"/>
<path d="M2501 4903 c-1 -6 -10 -10 -21 -8 -11 2 -18 0 -15 -6 4 -5 1 -9 -5
-9 -6 0 -8 -4 -5 -10 3 -5 1 -10 -5 -10 -6 0 -8 -4 -5 -10 3 -5 0 -10 -7 -10
-7 -1 -4 -6 8 -13 12 -7 19 -18 17 -24 -3 -7 4 -14 14 -14 38 -3 78 2 87 11 5
5 16 5 27 0 12 -7 22 -6 31 3 7 7 20 12 28 12 8 0 21 5 27 11 17 16 13 64 -5
64 -7 0 -11 4 -8 8 2 4 -7 9 -22 10 -14 1 -29 -4 -34 -10 -6 -10 -8 -10 -8 1
0 11 -3 11 -17 0 -15 -12 -16 -12 -8 1 6 12 5 13 -5 3 -9 -9 -19 -9 -33 -2
-14 8 -18 8 -13 0 4 -6 3 -11 -3 -11 -5 0 -12 6 -14 13 -4 9 -6 9 -6 0z"/>
<path d="M3840 4665 c0 -17 -2 -17 -10 -5 -8 13 -10 12 -10 -2 0 -10 -5 -18
-11 -18 -5 0 -2 -13 7 -30 10 -16 20 -27 22 -25 2 2 11 -3 19 -11 8 -8 19 -12
24 -9 5 4 9 1 9 -5 0 -6 5 -8 10 -5 6 3 10 1 10 -5 0 -6 5 -8 10 -5 6 3 10 1
10 -4 0 -6 7 -11 15 -11 8 0 15 -4 15 -10 0 -5 7 -10 15 -10 8 0 15 -6 15 -13
0 -12 29 -35 42 -33 4 1 15 -9 23 -22 9 -12 21 -20 26 -17 5 4 9 2 9 -3 0 -5
16 -17 35 -26 21 -10 33 -22 29 -28 -5 -7 -2 -8 5 -3 15 9 63 -14 55 -27 -3
-4 2 -8 11 -8 9 0 23 -7 32 -15 8 -8 18 -13 23 -10 4 3 11 -2 14 -11 3 -8 11
-12 16 -9 6 4 9 3 8 -2 -7 -20 25 -73 44 -73 10 0 16 -4 13 -10 -3 -5 3 -10
15 -10 12 0 18 -4 15 -10 -3 -5 -1 -10 5 -10 6 0 8 -4 5 -10 -3 -5 -1 -10 5
-10 17 0 40 -26 40 -46 0 -10 3 -14 7 -11 3 4 16 1 28 -7 30 -20 47 -4 49 47
0 9 5 17 11 17 5 0 2 7 -7 14 -10 7 -14 17 -10 21 4 5 -1 5 -10 2 -13 -4 -18
-1 -18 10 0 9 -3 13 -6 10 -4 -3 -15 5 -26 18 -11 14 -26 25 -34 25 -8 0 -13
4 -10 9 3 4 -3 16 -14 26 -11 10 -20 15 -20 11 0 -4 -10 2 -22 14 -12 11 -33
20 -47 20 -21 0 -23 2 -11 10 13 9 13 10 0 11 -8 1 -19 1 -23 0 -5 -1 -6 3 -3
8 4 5 0 15 -7 23 -7 7 -12 20 -12 28 0 8 -4 18 -10 22 -6 5 -5 8 3 8 10 0 10
4 -2 15 -8 9 -18 15 -22 15 -4 -1 -10 3 -13 8 -3 6 -17 12 -31 13 -14 2 -28 7
-31 11 -3 5 -17 9 -31 10 -15 1 -24 6 -22 10 3 4 -2 8 -11 8 -9 0 -13 5 -10
10 3 6 1 10 -5 10 -6 0 -9 4 -5 9 3 5 -4 12 -15 16 -11 4 -18 10 -15 15 3 5 0
12 -6 16 -8 4 -9 3 -5 -4 4 -7 2 -12 -3 -12 -6 0 -11 3 -11 8 0 4 -14 15 -30
24 -17 9 -30 24 -30 33 0 9 -4 14 -9 11 -5 -4 -12 0 -14 6 -4 10 -6 10 -6 0
-1 -8 -6 -10 -13 -6 -19 12 -48 12 -48 0 0 -6 -5 -4 -10 4 -9 13 -10 13 -10 0
0 -13 -1 -13 -10 0 -8 12 -10 12 -10 -5z"/>
<path d="M2354 4631 c-15 -9 -40 -27 -56 -40 -25 -22 -28 -31 -28 -87 l0 -63
-57 -16 c-32 -9 -70 -23 -85 -31 -15 -8 -30 -14 -33 -14 -15 2 -126 -123 -148
-166 -32 -63 -57 -148 -57 -193 0 -54 32 -99 75 -107 72 -13 129 24 140 91 13
80 30 120 69 159 23 23 53 47 69 54 23 10 27 9 28 -6 0 -9 2 -52 3 -94 1 -42
5 -80 9 -84 4 -4 7 -15 7 -24 0 -27 56 -73 92 -75 44 -2 87 20 99 52 5 14 10
75 11 135 2 60 6 112 10 114 14 9 89 -29 113 -58 13 -16 34 -60 45 -98 11 -38
28 -76 37 -85 40 -40 120 -42 158 -4 28 27 30 134 5 201 -10 26 -16 48 -14 48
7 0 -29 43 -69 82 -61 61 -157 103 -268 117 -4 1 -6 30 -6 66 0 75 -17 102
-82 127 -35 14 -41 14 -67 -1z"/>
<path d="M3547 4600 c-48 -30 -57 -45 -57 -95 0 -33 -13 -45 -47 -45 -30 0
-158 -69 -199 -108 -71 -66 -134 -198 -134 -281 0 -38 36 -100 60 -102 8 -1
26 -3 40 -4 34 -4 85 21 98 48 7 12 14 36 17 54 13 82 47 131 114 166 l51 26
1 -27 c1 -15 2 -63 3 -107 4 -151 67 -220 164 -179 44 18 52 47 56 191 2 68 5
125 8 128 7 8 80 -24 100 -44 55 -52 67 -67 78 -104 31 -107 41 -125 73 -140
38 -18 93 -16 125 4 77 48 34 254 -77 367 -56 57 -191 113 -294 121 -5 1 -7
16 -4 35 14 101 -84 155 -176 96z"/>
<path d="M4957 4524 c-3 -3 -23 -7 -43 -8 -21 -2 -40 -8 -41 -13 -2 -6 -22 -9
-43 -7 -22 2 -40 -1 -40 -7 0 -5 -5 -8 -11 -6 -17 3 -19 -31 -4 -47 9 -9 10
-17 3 -24 -6 -6 -6 -12 1 -16 6 -4 11 -12 11 -17 0 -6 -4 -8 -8 -5 -4 2 -7
-22 -6 -54 0 -40 -3 -57 -10 -53 -7 4 -6 1 1 -7 6 -7 9 -19 6 -28 -5 -11 -3
-13 7 -7 10 6 12 3 8 -13 -4 -12 -3 -22 1 -22 5 0 21 -12 37 -28 30 -28 36
-32 55 -32 5 0 8 -4 5 -9 -4 -5 5 -8 19 -7 13 2 22 -1 19 -5 -3 -5 -1 -9 4 -9
5 0 19 -9 32 -20 12 -11 27 -17 31 -14 5 3 9 1 9 -5 0 -6 7 -8 15 -5 8 4 15 1
15 -6 0 -6 5 -8 11 -5 13 9 52 -32 44 -45 -3 -6 1 -10 10 -10 9 0 14 -4 10 -9
-3 -5 1 -16 9 -24 8 -8 12 -17 9 -21 -4 -3 -1 -6 6 -6 8 0 11 -7 7 -15 -3 -9
0 -15 9 -15 20 0 30 -21 14 -31 -10 -6 -10 -9 -2 -9 7 0 17 -10 24 -21 8 -16
8 -20 0 -14 -6 3 -2 -10 9 -29 11 -20 17 -36 14 -36 -4 0 -1 -7 6 -15 6 -8 9
-19 5 -25 -3 -5 -1 -10 4 -10 6 0 11 -5 11 -11 0 -5 -6 -7 -12 -3 -10 6 -10 5
-1 -7 6 -8 11 -41 10 -74 -2 -43 2 -64 13 -75 9 -8 10 -11 3 -6 -8 5 -16 6
-19 4 -3 -3 8 -12 25 -19 16 -7 27 -17 25 -21 -3 -4 2 -8 10 -8 8 0 20 -8 25
-18 11 -21 11 -62 -1 -62 -4 0 -7 -3 -6 -7 3 -11 -23 -56 -29 -50 -7 8 -43
-25 -43 -39 0 -19 -47 -46 -53 -31 -3 7 -6 4 -6 -6 -1 -12 -6 -16 -13 -11 -7
4 -10 4 -6 -1 4 -4 3 -14 -3 -21 -10 -12 -21 -54 -23 -86 0 -10 -4 -18 -8 -18
-7 0 -3 -34 7 -50 3 -6 0 -10 -7 -10 -9 0 -10 -3 -2 -8 6 -4 10 -15 8 -25 -1
-10 2 -14 8 -11 6 4 9 1 6 -7 -3 -8 2 -20 11 -27 12 -11 13 -12 1 -6 -8 4 -3
-5 13 -21 15 -15 27 -32 27 -37 0 -5 5 -6 10 -3 6 3 13 -1 16 -9 3 -9 10 -16
16 -16 5 0 6 6 3 13 -3 6 2 2 11 -10 9 -13 25 -23 36 -23 12 0 17 -4 12 -12
-5 -7 0 -9 14 -6 13 4 20 1 19 -5 -1 -6 4 -11 11 -12 7 0 16 -4 20 -10 4 -5
21 -17 39 -27 27 -14 32 -14 37 -2 3 8 12 14 20 14 7 0 17 7 20 16 3 9 13 14
20 11 8 -3 17 1 20 8 3 9 12 12 21 9 9 -4 24 1 34 10 10 9 20 14 23 11 3 -3
13 6 23 21 11 17 12 24 4 18 -11 -6 -12 -5 -2 7 7 9 14 24 16 35 1 10 6 25 10
32 5 6 5 17 2 22 -3 6 -2 10 2 10 5 0 9 12 9 26 0 19 -4 24 -17 21 -13 -3 -16
0 -12 12 3 10 -2 8 -14 -7 -15 -18 -21 -20 -31 -10 -11 11 -12 10 -7 -4 4 -11
0 -20 -14 -27 -11 -6 -23 -20 -26 -31 -5 -17 -13 -20 -42 -16 -20 2 -40 11
-45 20 -9 15 -58 19 -58 4 0 -15 -41 -30 -54 -19 -7 6 -17 7 -21 3 -5 -4 -6
-2 -3 3 7 12 -17 37 -26 27 -12 -12 -56 51 -56 80 0 20 -4 27 -12 23 -7 -4 -5
0 5 8 14 11 15 16 5 21 -10 4 -10 7 -1 12 7 3 9 12 6 20 -3 8 0 14 7 14 6 0 8
5 5 10 -3 6 -1 10 5 10 6 0 8 5 5 10 -12 19 66 20 83 0 12 -13 13 -13 6 0 -4
8 -3 12 1 7 12 -10 14 -47 3 -47 -4 0 -8 -7 -8 -16 0 -9 -5 -12 -12 -8 -10 6
-10 4 0 -7 14 -15 16 -33 3 -25 -5 4 -4 -5 2 -19 7 -14 17 -25 24 -25 6 0 14
-6 16 -12 4 -10 8 -10 14 -2 4 7 17 14 28 16 11 2 19 10 18 16 -3 11 10 16 30
13 4 0 7 10 7 24 0 14 4 25 9 25 11 0 9 19 -3 39 -7 11 -6 12 5 6 12 -7 12 -6
1 7 -10 13 -10 17 0 21 8 4 7 6 -4 6 -12 1 -15 6 -11 18 4 11 3 14 -5 9 -7 -4
-12 -1 -12 6 0 8 -9 20 -20 28 -11 8 -20 18 -20 23 0 5 -7 16 -16 24 -13 13
-13 17 -2 24 10 7 10 9 1 9 -7 0 -13 7 -13 16 0 8 5 12 10 9 6 -3 10 -1 10 5
0 6 7 18 15 26 9 9 15 11 15 4 0 -6 5 -8 10 -5 6 4 8 10 5 15 -3 5 4 7 15 5
11 -2 20 1 20 6 0 6 5 7 10 4 6 -3 10 -1 10 5 0 6 4 9 9 6 4 -3 13 6 19 19 9
19 8 27 -3 39 -11 11 -12 16 -2 19 9 4 9 6 0 6 -7 1 -13 8 -13 16 0 8 -5 15
-11 15 -5 0 -7 5 -4 10 3 6 1 10 -4 10 -6 0 -10 3 -10 8 3 17 -2 33 -8 29 -5
-3 -8 11 -7 31 0 21 -3 39 -7 42 -4 3 -9 12 -11 20 -2 8 -11 21 -21 29 -11 8
-17 21 -14 32 3 10 0 17 -6 16 -6 -1 -13 8 -15 21 -2 13 -8 20 -14 16 -7 -4
-8 -2 -4 5 4 6 -1 26 -12 44 -11 17 -17 38 -15 45 3 6 -2 12 -10 12 -9 0 -13
9 -12 25 2 14 -2 23 -8 22 -7 -1 -12 5 -13 13 -1 17 -15 53 -23 60 -3 3 -11
14 -18 25 -6 11 -16 19 -22 17 -6 -1 -11 2 -11 7 0 5 -13 14 -30 21 -16 7 -27
16 -24 21 3 5 1 9 -5 9 -5 0 -8 8 -6 18 1 9 -2 25 -6 34 -6 10 -5 19 2 23 7 5
5 13 -5 24 -9 10 -15 20 -14 22 2 2 -2 -1 -8 -8 -6 -7 -14 -10 -17 -6 -4 3 -7
1 -7 -6 0 -7 -5 -9 -12 -5 -7 5 -9 2 -5 -9 3 -9 0 -18 -9 -21 -8 -3 -14 -12
-14 -21 0 -8 -5 -15 -11 -15 -5 0 -7 6 -3 13 6 9 4 9 -7 1 -17 -14 -49 -10
-59 6 -4 7 -11 12 -16 13 -5 1 -7 6 -6 12 2 6 0 7 -4 3 -12 -13 -34 13 -34 39
0 13 4 22 9 18 6 -3 8 3 6 13 -3 20 47 58 64 48 4 -3 7 6 5 19 -1 14 1 25 6
25 5 0 3 14 -3 30 -7 18 -19 30 -30 30 -10 0 -15 5 -12 10 7 11 -8 14 -18 4z
m548 -1534 c3 -5 1 -10 -4 -10 -6 0 -11 5 -11 10 0 6 2 10 4 10 3 0 8 -4 11
-10z"/>
<path d="M4617 3979 c-10 -11 -21 -18 -25 -15 -4 2 -8 -9 -8 -25 -1 -22 7 -37
35 -61 20 -18 35 -36 34 -40 -2 -4 3 -8 11 -8 8 0 13 -8 12 -17 -2 -10 2 -21
8 -25 8 -6 7 -11 -3 -17 -9 -6 -10 -10 -2 -12 7 -3 13 -14 14 -26 0 -12 3 -20
5 -18 2 2 13 -5 25 -15 11 -11 23 -17 28 -15 4 3 5 -4 2 -15 -3 -12 0 -20 7
-20 10 0 10 -3 1 -14 -9 -11 -9 -16 -1 -21 7 -4 10 -16 7 -26 -3 -11 0 -19 6
-19 6 0 7 -3 4 -6 -3 -4 -1 -16 5 -28 7 -11 11 -25 10 -29 -1 -5 2 -6 8 -2 5
3 10 -1 10 -10 0 -8 6 -18 13 -20 7 -3 12 -21 11 -43 0 -20 2 -41 5 -47 5 -10
6 -17 12 -92 2 -24 8 -43 13 -43 6 0 5 -4 -3 -9 -9 -6 -10 -11 -3 -15 6 -4 9
-13 5 -21 -3 -8 0 -15 6 -15 6 0 10 -3 10 -7 -1 -5 -1 -15 0 -23 1 -13 2 -13
11 0 6 9 10 10 10 3 0 -6 9 -11 20 -10 10 1 17 3 15 6 -3 2 3 10 12 16 17 13
27 65 13 65 -5 0 -11 7 -14 16 -3 8 -2 12 4 9 15 -9 12 1 -5 18 -10 10 -15 41
-17 101 -1 47 -6 86 -11 86 -4 0 -6 4 -2 9 3 5 -2 17 -11 25 -8 9 -12 16 -7
16 4 1 -3 10 -16 21 -13 11 -21 22 -17 26 3 3 -1 15 -11 25 -9 10 -11 18 -5
18 7 0 4 13 -8 32 -10 17 -16 36 -13 41 3 6 1 7 -4 4 -15 -9 -20 9 -18 61 1
23 -2 42 -7 42 -5 0 -6 5 -3 10 3 6 1 10 -5 10 -6 0 -8 5 -5 10 4 6 3 10 -2 9
-20 -3 -34 2 -28 11 3 6 -1 10 -9 10 -9 0 -16 7 -16 15 0 8 -5 15 -11 15 -6 0
-9 7 -5 15 3 8 1 15 -4 15 -5 0 -7 8 -6 18 2 9 -7 27 -20 40 -13 12 -24 20
-24 16 0 -3 -6 -2 -13 4 -10 9 -18 6 -30 -9z"/>
<path d="M2504 3884 c-49 -20 -91 -77 -85 -116 1 -9 -44 -17 -135 -23 -132 -8
-244 -30 -244 -46 0 -5 -5 -9 -11 -9 -16 0 -38 -31 -39 -54 -1 -83 66 -130
171 -121 116 10 184 16 222 20 30 4 37 2 38 -13 0 -9 2 -25 4 -34 4 -23 -4
-28 -67 -34 -73 -7 -209 -34 -232 -46 -57 -31 -106 -118 -131 -237 -18 -85
-12 -276 10 -351 9 -30 19 -65 22 -78 7 -29 88 -119 123 -137 37 -19 98 -32
195 -40 44 -4 81 -8 82 -9 1 -1 4 -14 7 -29 4 -24 1 -27 -22 -28 -15 0 -36 -2
-47 -4 -18 -4 -59 -7 -245 -20 -57 -4 -126 -22 -156 -41 -25 -17 -56 -76 -50
-96 2 -7 7 -25 10 -39 3 -14 15 -36 26 -49 23 -27 56 -30 150 -16 68 10 98 13
230 21 l105 6 1 -318 c1 -175 4 -337 7 -359 11 -65 35 -112 65 -127 51 -26
123 0 144 51 9 24 11 279 5 654 -1 65 2 109 8 111 18 6 199 -2 260 -11 33 -6
89 -9 125 -9 55 2 69 6 90 27 32 32 38 114 10 147 -31 39 -51 43 -300 59 -47
3 -98 7 -115 9 -16 2 -42 3 -56 4 -22 1 -26 5 -23 27 1 14 4 27 6 29 2 2 32 6
68 9 107 11 167 27 230 64 56 32 75 55 95 113 27 80 28 90 29 274 1 160 -2
188 -21 251 -16 51 -33 81 -62 111 -46 46 -87 58 -276 78 -22 2 -46 4 -53 4
-9 1 -12 12 -9 34 l3 32 155 1 c211 2 203 1 232 28 14 13 27 23 29 21 2 -2 4
15 5 37 3 54 -22 94 -70 113 -37 15 -160 27 -299 29 -53 1 -58 3 -58 24 0 26
-17 60 -44 84 -10 10 -20 18 -20 18 -1 0 -15 4 -31 8 -20 6 -41 4 -61 -4z
m236 -608 c77 -14 86 -17 99 -38 12 -20 20 -47 25 -95 3 -22 1 -22 -100 -21
l-103 1 0 83 c0 91 -7 85 79 70z m-310 -75 l0 -78 -52 -2 c-50 -1 -134 -8
-161 -14 -8 -1 -11 9 -9 32 8 73 34 104 102 116 41 8 114 22 118 24 1 1 2 -34
2 -78z m1 -275 c1 -17 1 -129 0 -145 -1 -11 -12 -12 -53 -7 -69 9 -133 38
-148 66 -12 22 -31 79 -27 81 1 0 34 3 72 6 39 3 71 6 72 7 8 8 83 0 84 -8z
m429 -26 c-15 -82 -53 -111 -165 -126 l-40 -5 2 63 c1 35 2 72 2 83 1 19 8 20
104 20 l103 0 -6 -35z"/>
<path d="M4946 2975 c-7 -8 -17 -11 -21 -7 -5 4 -5 1 -1 -5 4 -7 2 -22 -4 -33
-8 -15 -8 -20 2 -20 8 0 9 -3 3 -8 -14 -10 -17 -32 -5 -32 6 0 10 -6 10 -14 0
-24 16 -27 37 -6 12 10 22 17 24 15 2 -2 5 6 5 18 1 12 4 32 7 45 3 12 2 22
-4 22 -5 0 -9 6 -9 14 0 20 -27 27 -44 11z"/>
<path d="M4940 2754 c0 -8 -4 -12 -10 -9 -13 8 -23 -37 -18 -85 2 -22 -1 -42
-7 -44 -5 -2 -1 -5 10 -5 17 -1 17 -3 5 -11 -11 -7 -11 -10 -2 -10 7 0 10 -4
7 -10 -3 -6 1 -7 9 -4 9 3 16 1 16 -5 0 -6 9 -2 20 9 11 11 20 25 20 30 0 6 5
10 11 10 8 0 8 4 0 14 -10 11 -8 17 6 25 10 6 13 11 5 11 -10 0 -10 5 -2 20 6
11 7 20 1 20 -5 0 -14 14 -20 30 -11 32 -51 44 -51 14z"/>
<path d="M5373 2695 c-17 -17 -20 -24 -11 -33 8 -8 8 -12 1 -12 -5 0 -10 -12
-9 -27 0 -19 -4 -27 -14 -25 -11 3 -11 0 -1 -12 9 -10 9 -16 1 -21 -7 -4 -9
-18 -6 -31 4 -15 2 -24 -5 -24 -8 0 -7 -5 2 -16 8 -10 9 -18 3 -22 -6 -4 -10
-26 -10 -49 1 -26 -3 -38 -9 -33 -6 5 -9 -7 -6 -36 1 -24 8 -44 15 -44 6 0 4
-5 -4 -10 -10 -6 -11 -10 -2 -10 6 0 12 -8 12 -17 0 -13 5 -11 22 10 23 29 27
40 33 100 2 22 0 35 -5 32 -6 -4 -6 4 0 19 7 18 6 26 -1 26 -8 0 -8 4 0 14 8
10 9 15 1 18 -7 2 -1 22 15 52 40 75 56 118 42 109 -7 -4 -7 0 2 10 9 11 10
17 2 17 -6 0 -11 8 -11 17 0 9 -3 13 -7 10 -3 -4 -11 -3 -17 1 -6 5 -20 -1
-33 -13z"/>
<path d="M5253 2150 c-3 -11 -9 -20 -12 -20 -4 0 -8 -7 -8 -15 0 -8 5 -15 11
-15 7 0 7 -3 0 -8 -7 -4 -14 -17 -15 -30 -2 -12 -7 -23 -11 -22 -14 0 -49 -41
-43 -50 4 -6 0 -10 -7 -10 -9 0 -9 -3 2 -10 8 -5 11 -10 5 -10 -5 0 -2 -5 8
-11 15 -9 23 -6 41 16 16 18 25 23 28 14 3 -8 9 -10 19 -3 39 25 71 -15 52
-66 -10 -24 -10 -34 -1 -46 10 -14 -1 -46 -13 -38 -5 3 -9 0 -9 -6 0 -6 -4 -8
-10 -5 -5 3 -10 1 -10 -5 0 -6 -4 -9 -9 -5 -12 7 -39 -45 -35 -68 1 -10 -2
-14 -9 -10 -6 4 -8 0 -4 -10 4 -11 2 -14 -8 -10 -8 3 -18 -2 -21 -11 -3 -9
-10 -16 -16 -16 -5 0 -6 6 -2 13 5 9 4 9 -5 1 -7 -7 -11 -20 -9 -30 2 -11 -3
-25 -12 -32 -8 -8 -9 -11 -2 -7 7 4 12 0 12 -9 0 -9 -5 -16 -11 -16 -8 0 -7
-6 2 -17 8 -9 9 -14 3 -10 -7 4 -15 0 -18 -9 -3 -8 -10 -12 -16 -9 -5 3 -10 1
-10 -5 0 -6 -4 -9 -10 -5 -5 3 -5 -7 1 -25 14 -38 23 -38 46 0 9 17 23 30 31
30 7 0 10 5 6 12 -4 7 -3 8 4 4 16 -10 49 27 47 52 -1 12 2 19 7 16 4 -3 8 2
8 11 0 10 5 13 13 9 7 -5 6 0 -3 11 -8 10 -10 16 -4 12 12 -7 59 41 50 51 -3
3 3 11 14 19 10 7 17 20 14 27 -3 8 7 23 22 35 15 11 23 21 19 21 -4 0 -2 7 6
16 10 13 10 17 -2 25 -10 6 -11 9 -1 9 8 0 10 5 6 12 -4 7 -9 26 -11 43 -2 16
-8 32 -14 33 -6 3 -5 10 3 20 11 13 11 14 0 8 -9 -6 -12 -1 -10 16 2 12 7 29
11 36 5 7 3 12 -3 12 -6 0 -8 5 -5 11 4 5 -1 19 -11 30 -9 10 -14 19 -9 19 4
0 -3 9 -16 21 -13 11 -18 17 -10 13 9 -5 12 -3 7 4 -12 20 -57 14 -63 -8z m82
-259 c3 -5 2 -12 -3 -15 -5 -3 -9 1 -9 9 0 17 3 19 12 6z"/>
<path d="M5393 2103 c4 -3 2 -12 -5 -20 -9 -11 -7 -12 7 -7 14 6 16 4 10 -6
-5 -8 -4 -11 3 -7 12 8 4 47 -11 47 -6 0 -7 -3 -4 -7z"/>
</g>
</svg>
